<svg width="34" height="34" viewBox="0 0 34 34" fill="none" xmlns="http://www.w3.org/2000/svg">
<path fill-rule="evenodd" clip-rule="evenodd" d="M17 0.602976C17.7647 0.602976 18.3846 1.22289 18.3846 1.98759L18.3846 15.6154L32.0124 15.6154C32.7771 15.6154 33.397 16.2353 33.397 17C33.397 17.7647 32.7771 18.3846 32.0124 18.3846L18.3846 18.3846V32.0124C18.3846 32.7771 17.7647 33.397 17 33.397C16.2353 33.397 15.6154 32.7771 15.6154 32.0124L15.6154 18.3846H1.98758C1.22288 18.3846 0.602964 17.7647 0.602964 17C0.602964 16.2353 1.22288 15.6154 1.98758 15.6154L15.6154 15.6154L15.6154 1.98759C15.6154 1.22289 16.2353 0.602976 17 0.602976Z" fill="#242320"/>
</svg>
